<svg width="56" height="37" viewBox="0 0 56 37" fill="none" xmlns="http://www.w3.org/2000/svg">
<rect x="20" y="8" width="19" height="19" fill="white"/>
<path d="M54.7932 5.89551C54.4821 4.7858 53.8761 3.78113 53.0397 2.98829C52.1796 2.17107 51.1255 1.5865 49.9768 1.28974C45.6778 0.156615 28.4543 0.156615 28.4543 0.156615C21.274 0.0749217 14.0954 0.43423 6.95918 1.23251C5.81046 1.55119 4.75831 2.14883 3.8963 2.97227C3.04931 3.7872 2.43582 4.79214 2.11534 5.89322C1.34549 10.0406 0.971438 14.2517 0.998239 18.4698C0.970769 22.6841 1.3439 26.8938 2.11534 31.0464C2.42896 32.1429 3.04016 33.1432 3.88943 33.9513C4.7387 34.7594 5.79629 35.3431 6.95918 35.6521C11.3154 36.783 28.4543 36.783 28.4543 36.783C35.6437 36.8648 42.8314 36.5055 49.9768 35.7071C51.1255 35.4103 52.1796 34.8257 53.0397 34.0085C53.8758 33.2158 54.4811 32.211 54.7909 31.1013C55.5808 26.9555 55.965 22.7427 55.9378 18.5224C55.9972 14.2843 55.6136 10.0516 54.7932 5.89322V5.89551ZM22.9786 26.3078V10.634L37.3087 18.4721L22.9786 26.3078Z" fill="#EB2626"/>
</svg>
